<?xml version="1.0" standalone="no"?>
<!DOCTYPE svg PUBLIC "-//W3C//DTD SVG 20010904//EN"
 "http://www.w3.org/TR/2001/REC-SVG-20010904/DTD/svg10.dtd">
<svg version="1.0" xmlns="http://www.w3.org/2000/svg"
 width="109.000000pt" height="109.000000pt" viewBox="0 0 109.000000 109.000000"
 preserveAspectRatio="xMidYMid meet">
<metadata>
Created by potrace 1.11, written by Peter Selinger 2001-2013
</metadata>
<g transform="translate(0.000000,109.000000) scale(0.100000,-0.100000)"
fill="#000000" stroke="none">
<path d="M292 1074 c-19 -13 -32 -54 -17 -54 17 0 63 45 58 56 -7 18 -13 18
-41 -2z"/>
<path d="M757 1076 c-3 -8 4 -21 16 -29 22 -15 22 -15 -5 -10 -37 7 -38 -18
-2 -42 22 -14 28 -15 35 -4 4 8 3 16 -2 20 -7 4 -4 9 5 12 22 9 20 26 -6 48
-25 23 -34 24 -41 5z"/>
<path d="M299 1022 c-8 -9 -14 -25 -11 -34 3 -16 6 -16 33 4 16 12 29 28 29
35 0 18 -32 15 -51 -5z"/>
<path d="M244 1008 c-6 -12 -9 -29 -8 -35 1 -7 2 -19 3 -25 1 -9 4 -8 11 2 6
9 10 10 10 3 0 -28 -22 -22 -41 11 -30 52 -52 49 -32 -4 9 -22 21 -40 27 -40
6 0 24 -13 39 -30 16 -16 24 -30 19 -30 -5 0 -15 7 -22 16 -8 8 -22 20 -32 25
-18 10 -19 9 -3 -20 8 -17 15 -33 15 -36 -1 -21 2 -25 19 -25 10 0 21 -7 25
-15 4 -13 2 -14 -14 -5 -23 13 -25 3 -8 -37 14 -31 28 -44 40 -37 4 3 8 -2 8
-10 0 -8 8 -17 18 -19 15 -4 15 -5 0 -6 -9 0 -20 4 -23 9 -3 6 -13 10 -21 10
-12 0 -11 -5 3 -27 10 -15 17 -28 16 -30 -9 -10 0 -22 22 -27 15 -4 25 -13 24
-24 0 -10 -3 -12 -6 -4 -2 6 -11 12 -19 12 -15 0 -19 -12 -7 -24 4 -3 8 -14 9
-24 2 -9 7 -18 12 -20 5 -1 18 -10 28 -18 18 -14 18 -15 -3 -9 -26 7 -28 4
-11 -28 6 -12 14 -29 18 -37 4 -8 10 -13 13 -10 4 3 14 -5 22 -18 9 -12 20
-20 24 -18 4 3 8 -7 9 -20 1 -15 -2 -22 -8 -19 -6 3 -10 13 -10 20 0 8 -9 19
-19 25 -27 14 -30 13 -24 -10 3 -11 9 -20 14 -20 5 0 6 -7 3 -15 -4 -10 3 -18
20 -25 30 -11 36 -31 6 -23 -19 5 -19 4 -3 -35 9 -23 18 -41 22 -40 18 2 29
-4 35 -17 4 -13 2 -14 -14 -5 -17 9 -20 8 -20 -10 0 -11 5 -20 11 -20 5 0 7
-5 4 -10 -4 -6 -2 -17 4 -24 7 -8 11 -18 9 -22 -4 -19 32 -84 46 -84 9 0 16
-5 16 -10 0 -6 5 -17 12 -24 10 -10 19 -6 48 23 19 19 35 38 35 42 0 4 3 11 8
15 4 4 7 15 7 25 0 9 9 38 20 63 21 49 20 52 -11 35 -18 -9 -19 -8 -7 10 6 11
15 18 19 15 8 -5 21 12 37 48 17 41 -13 37 -38 -5 -14 -22 -20 -26 -20 -14 0
20 35 59 63 70 9 3 17 15 17 25 0 10 5 23 12 30 6 6 9 14 6 18 -9 9 -48 -15
-48 -29 0 -7 -9 -18 -20 -25 -11 -7 -20 -22 -21 -35 l-1 -22 -6 23 c-4 13 -11
23 -16 22 -5 -1 -14 9 -20 21 -17 35 -40 45 -71 31 -28 -13 -44 -40 -28 -51 5
-3 10 -16 10 -28 1 -15 -4 -21 -17 -20 -14 1 -16 5 -9 18 12 23 -6 35 -19 13
-8 -15 -10 -15 -15 0 -4 9 -2 16 2 16 15 0 22 32 10 46 -6 7 -8 18 -5 23 4 5
1 13 -5 17 -6 3 -15 0 -20 -7 -7 -12 -9 -11 -9 2 0 8 5 20 11 26 8 8 8 17 0
31 -6 11 -11 31 -11 44 l0 23 -20 -25 c-21 -28 -22 -9 -1 30 10 17 11 25 2 28
-6 2 -11 15 -11 29 0 15 5 23 12 21 7 -3 13 -11 13 -19 0 -17 13 -19 41 -7 19
9 20 14 11 47 -6 20 -12 38 -14 40 -6 8 -53 -22 -53 -33 0 -14 -40 -49 -47
-42 -3 2 2 15 10 27 10 13 13 28 7 38 -8 17 -24 55 -36 86 -4 11 -6 28 -5 38
3 24 -14 21 -27 -5 -8 -18 -11 -19 -11 -6 -2 31 22 68 56 89 36 22 44 49 15
49 -23 0 -42 -19 -42 -42 0 -10 -7 -18 -16 -18 -8 0 -13 4 -10 9 8 12 -4 41
-16 41 -5 0 -7 -4 -3 -9 3 -5 1 -12 -5 -16 -13 -8 -13 11 1 33 7 12 6 28 -3
55 -13 38 -14 38 -24 15z m60 -236 c2 -4 1 -14 -3 -21 -6 -9 -10 -7 -14 8 -5
20 7 29 17 13z m36 -48 c0 -8 -4 -12 -10 -9 -5 3 -10 10 -10 16 0 5 5 9 10 9
6 0 10 -7 10 -16z m-3 -70 c2 -13 1 -15 -4 -4 -3 8 -11 19 -17 23 -7 6 -6 7 4
4 8 -2 16 -12 17 -23z m113 -4 c-8 -5 -19 -10 -25 -10 -5 0 -3 5 5 10 8 5 20
10 25 10 6 0 3 -5 -5 -10z m-80 -82 c0 -19 -2 -20 -10 -8 -13 19 -13 30 0 30
6 0 10 -10 10 -22z m28 -84 c14 -15 14 -16 -3 -13 -10 2 -20 10 -23 17 -5 17
6 15 26 -4z m208 -163 c1 -12 -3 -24 -7 -27 -5 -3 -9 1 -9 10 0 8 -3 22 -7 32
-4 12 -2 15 8 12 8 -3 15 -15 15 -27z m-142 -61 c-7 -6 -24 22 -23 40 0 9 6 5
14 -10 7 -14 11 -27 9 -30z m149 -20 c-3 -11 -7 -20 -9 -20 -2 0 -4 9 -4 20 0
11 4 20 9 20 5 0 7 -9 4 -20z m-56 -56 c-9 -30 -12 -33 -18 -18 -11 27 -11 46
0 39 5 -3 12 -1 16 5 12 20 13 10 2 -26z m-45 -106 c-7 -7 -10 -5 -7 8 5 29 6
30 12 16 3 -8 1 -18 -5 -24z m72 17 c-4 -8 -10 -15 -15 -15 -4 0 -6 7 -3 15 4
8 10 15 15 15 4 0 6 -7 3 -15z"/>
<path d="M828 1018 c-2 -23 -5 -33 -13 -51 -4 -11 -3 -23 4 -30 6 -6 11 -18
11 -26 -1 -13 -3 -13 -14 2 -14 18 -33 7 -21 -12 3 -5 1 -12 -5 -16 -13 -8
-13 -45 0 -45 6 0 10 -10 10 -22 -1 -21 -2 -21 -11 -5 -14 24 -33 22 -26 -4 3
-12 0 -22 -9 -26 -13 -5 -13 -8 1 -29 17 -27 19 -44 5 -44 -5 0 -10 7 -10 16
0 27 -18 5 -24 -30 -4 -22 -2 -44 6 -58 7 -13 13 -24 14 -25 0 -2 13 3 28 10
18 8 25 18 22 30 -2 9 0 15 5 11 5 -3 9 -1 9 5 0 5 3 17 7 27 5 14 3 16 -11
11 -12 -5 -16 -3 -13 5 2 7 9 12 15 11 10 -2 29 22 30 37 1 3 4 13 8 23 9 25
1 29 -24 11 -12 -8 -22 -25 -22 -37 -1 -19 -2 -20 -10 -5 -8 13 -5 23 14 41
13 13 31 27 40 30 9 4 19 15 22 24 3 10 10 27 16 37 9 16 7 18 -11 13 -30 -7
-26 12 5 23 14 6 24 16 21 23 -2 6 2 20 11 30 8 9 13 19 10 22 -11 11 -37 -8
-51 -36 -13 -28 -15 -29 -20 -10 -3 12 -1 23 3 26 10 6 1 43 -11 51 -5 3 -10
-1 -11 -8z m7 -158 c-4 -12 -9 -19 -12 -17 -3 3 -2 15 2 27 4 12 9 19 12 17 3
-3 2 -15 -2 -27z m-63 -189 c-8 -22 -9 -22 -23 -5 -9 11 -9 15 -1 10 7 -4 15
-1 18 9 4 9 8 14 10 12 3 -2 1 -14 -4 -26z"/>
<path d="M98 1013 c-29 -7 -22 -36 7 -31 14 3 25 1 25 -3 0 -5 -7 -9 -16 -9
-9 0 -14 -7 -12 -17 2 -12 14 -19 36 -20 25 -1 32 3 32 18 0 11 -7 19 -17 20
-11 0 -13 3 -5 6 14 5 17 33 3 33 -5 0 -15 2 -23 4 -7 2 -21 2 -30 -1z"/>
<path d="M940 1005 c-5 -7 -12 -25 -16 -41 -5 -27 -4 -29 30 -31 32 -2 36 1
36 23 0 13 5 24 11 24 6 0 9 8 7 17 -4 20 -53 26 -68 8z"/>
<path d="M318 971 c-10 -10 -18 -26 -18 -35 0 -17 3 -16 33 3 17 11 32 26 32
33 0 20 -28 19 -47 -1z"/>
<path d="M725 980 c-7 -11 17 -40 33 -40 6 0 12 -6 15 -12 3 -9 7 -6 13 6 5
14 1 24 -15 38 -26 20 -37 22 -46 8z"/>
<path d="M711 936 c-8 -9 -3 -18 19 -34 36 -27 40 -27 40 -3 0 26 -44 55 -59
37z"/>
<path d="M117 913 c-9 -14 9 -36 22 -29 6 4 11 2 11 -3 0 -6 -4 -11 -10 -11
-5 0 -10 -7 -10 -15 0 -11 11 -15 41 -15 45 0 50 19 8 31 -17 5 -19 7 -6 8 12
1 17 7 15 19 -3 18 -62 30 -71 15z"/>
<path d="M907 913 c-19 -18 -5 -32 31 -30 20 1 36 5 35 10 -2 4 -3 12 -3 17 0
11 -53 14 -63 3z"/>
<path d="M345 870 c-13 -15 -15 -24 -8 -31 13 -13 62 18 63 39 0 19 -35 14
-55 -8z"/>
<path d="M690 877 c0 -11 49 -47 64 -47 13 0 5 28 -12 43 -22 20 -52 22 -52 4z"/>
<path d="M913 872 c-12 -2 -24 -10 -27 -18 -4 -10 3 -14 24 -14 17 0 33 0 38
-1 4 0 8 6 10 14 3 17 -14 24 -45 19z"/>
<path d="M363 824 c-20 -20 -23 -28 -13 -34 17 -11 59 19 60 43 0 24 -17 21
-47 -9z"/>
<path d="M680 832 c0 -10 11 -25 24 -34 20 -14 26 -15 35 -4 8 10 6 18 -10 31
-26 25 -49 27 -49 7z"/>
<path d="M161 819 c-18 -7 -21 -12 -12 -23 7 -8 22 -12 34 -10 l22 5 -22 -10
c-36 -16 -29 -41 10 -41 19 0 36 3 40 6 9 10 -4 35 -15 28 -6 -4 -8 1 -4 14 9
27 -19 43 -53 31z"/>
<path d="M894 819 c-37 -13 -38 -29 -3 -29 34 0 36 -7 3 -13 -55 -8 -58 -37
-4 -37 31 0 40 4 40 18 0 9 3 27 6 38 7 25 -11 35 -42 23z"/>
<path d="M384 776 c-21 -18 -26 -28 -18 -36 8 -8 19 -5 40 14 21 18 26 28 18
36 -8 8 -19 5 -40 -14z"/>
<path d="M665 790 c-3 -5 -3 -15 0 -21 4 -6 -1 -17 -11 -25 -14 -11 -16 -17
-6 -21 7 -2 19 -11 26 -19 22 -21 36 -17 36 11 0 14 5 25 10 25 6 0 10 6 10
13 0 18 -57 50 -65 37z m35 -50 c0 -5 -2 -10 -4 -10 -3 0 -8 5 -11 10 -3 6 -1
10 4 10 6 0 11 -4 11 -10z"/>
<path d="M397 732 c-17 -18 -23 -42 -11 -42 10 0 49 23 56 34 18 28 -21 35
-45 8z"/>
<path d="M186 723 c-14 -14 -4 -33 16 -33 21 0 21 -1 3 -13 -25 -19 -12 -35
25 -32 38 3 49 13 30 28 -8 7 -15 21 -15 32 0 14 -7 20 -27 22 -14 1 -29 -1
-32 -4z"/>
<path d="M851 721 c-4 -4 -11 -18 -15 -33 -3 -16 -7 -31 -9 -34 -3 -10 63 -13
69 -2 3 5 0 15 -6 23 -10 12 -9 15 4 15 9 0 16 8 16 18 0 13 -8 18 -25 18 -14
0 -29 -2 -34 -5z"/>
<path d="M637 693 c-13 -13 -7 -31 13 -36 11 -3 20 -11 20 -19 0 -8 -3 -9 -8
-2 -12 18 -40 24 -46 9 -3 -8 7 -23 23 -35 37 -26 41 -25 41 5 0 14 4 25 9 25
15 0 6 32 -14 46 -21 16 -29 17 -38 7z"/>
<path d="M705 624 c-4 -10 -10 -26 -15 -35 -5 -10 -5 -20 1 -26 13 -13 20 -55
8 -48 -5 4 -9 13 -9 21 0 8 -5 12 -11 8 -6 -3 -9 -17 -6 -30 2 -13 1 -21 -4
-19 -17 11 -19 -16 -3 -40 14 -22 14 -25 1 -25 -8 0 -18 6 -21 13 -3 6 -5 -2
-3 -19 2 -23 0 -31 -10 -27 -8 3 -13 -3 -13 -16 0 -12 6 -21 14 -21 18 0 47
40 39 53 -3 6 -1 7 4 4 6 -4 16 0 23 8 7 8 19 15 26 15 13 0 19 13 15 34 -1 4
4 14 10 22 16 19 3 30 -16 14 -11 -9 -15 -9 -15 -1 0 6 11 16 25 21 14 5 25
17 25 28 0 10 5 23 12 30 6 6 9 14 6 17 -10 10 -39 -8 -52 -33 -13 -24 -13
-24 -19 -3 -3 11 -1 19 3 16 17 -10 21 15 6 37 -15 21 -16 21 -21 2z m1 -161
c-11 -11 -17 4 -9 23 7 18 8 18 11 1 2 -10 1 -21 -2 -24z"/>
<path d="M210 609 c0 -11 4 -18 8 -15 4 2 14 1 22 -5 13 -7 12 -9 -2 -9 -17 0
-26 -29 -10 -31 4 0 17 -2 29 -3 34 -4 50 9 33 28 -7 9 -10 19 -7 23 13 12
-16 33 -44 33 -23 0 -29 -5 -29 -21z"/>
<path d="M812 606 c3 -15 0 -27 -8 -30 -25 -10 -14 -24 21 -28 23 -3 36 1 40
10 8 21 7 22 -17 23 -22 1 -22 1 2 8 14 4 26 15 28 24 3 14 -4 17 -33 17 -34
0 -37 -2 -33 -24z"/>
<path d="M453 593 c-13 -9 -23 -24 -23 -34 0 -24 9 -23 38 0 37 32 25 61 -15
34z"/>
<path d="M603 594 c-4 -11 2 -23 18 -35 29 -23 35 -23 42 -4 4 9 -5 22 -23 35
-28 20 -31 20 -37 4z"/>
<path d="M457 542 c-20 -22 -22 -42 -4 -42 21 1 60 37 53 49 -10 16 -31 14
-49 -7z"/>
<path d="M587 553 c-12 -11 -7 -33 7 -33 7 0 19 -7 26 -15 12 -15 30 -12 30 5
0 10 -40 50 -50 50 -4 0 -10 -3 -13 -7z"/>
<path d="M802 531 c-28 -7 -30 -22 -5 -33 15 -7 14 -8 -4 -4 -13 2 -23 0 -23
-4 0 -5 -3 -15 -6 -24 -5 -13 1 -16 28 -16 42 0 50 7 37 31 -7 14 -7 19 2 17
17 -4 23 28 7 34 -7 3 -23 2 -36 -1z"/>
<path d="M242 513 c2 -12 12 -17 28 -16 14 2 19 0 10 -4 -18 -7 -30 -24 -24
-34 2 -4 20 -7 39 -7 38 0 48 20 18 37 -10 6 -13 11 -6 11 7 0 10 7 7 15 -4 9
-19 15 -41 15 -27 0 -34 -4 -31 -17z"/>
<path d="M477 492 c-18 -20 -23 -52 -8 -52 5 0 14 7 21 15 7 9 15 13 17 11 3
-2 -5 -14 -16 -25 -40 -40 -17 -57 29 -22 21 16 22 21 11 35 -8 9 -11 19 -8
23 7 7 -11 33 -23 33 -4 0 -14 -8 -23 -18z"/>
<path d="M566 495 c-3 -8 7 -23 23 -35 36 -25 41 -25 41 -1 0 31 -54 61 -64
36z"/>
<path d="M550 448 c0 -7 12 -21 26 -32 20 -14 28 -16 37 -6 9 9 6 16 -12 31
-27 22 -51 25 -51 7z"/>
<path d="M281 431 c-12 -8 -12 -12 -3 -24 7 -8 12 -19 11 -23 -4 -25 4 -31 33
-29 35 3 49 21 24 31 -12 5 -13 10 -5 25 5 10 8 19 7 20 -25 7 -56 7 -67 0z"/>
<path d="M758 429 c-30 -17 -20 -29 22 -29 41 0 57 21 24 34 -21 8 -26 7 -46
-5z"/>
<path d="M737 383 c-16 -15 -5 -28 26 -28 32 0 50 12 41 27 -6 10 -58 11 -67
1z"/>
<path d="M734 335 c-11 -7 -19 -17 -19 -22 -1 -4 -6 -18 -13 -30 -12 -22 -11
-23 18 -23 16 0 33 0 38 0 4 0 7 8 7 18 0 11 -6 16 -17 14 -10 -2 -18 1 -18 6
0 5 12 9 27 8 32 -1 41 19 15 33 -14 7 -24 6 -38 -4z"/>
<path d="M305 330 c-10 -17 0 -23 40 -25 27 -1 35 3 33 14 -4 19 -63 27 -73
11z"/>
<path d="M320 279 c0 -23 8 -26 47 -20 41 7 30 32 -16 36 -24 2 -31 -1 -31
-16z"/>
<path d="M352 239 c-32 -12 -22 -35 14 -32 28 2 28 2 6 -7 -32 -14 -22 -35 16
-37 31 -1 45 18 22 32 -5 3 -7 12 -4 20 8 19 -26 34 -54 24z"/>
<path d="M697 237 c-9 -7 -18 -26 -21 -43 -7 -30 -6 -31 29 -32 29 -1 35 2 35
19 0 17 -5 20 -25 17 -14 -3 -22 -1 -19 4 4 6 17 8 30 5 28 -5 42 9 25 26 -15
15 -37 17 -54 4z"/>
<path d="M373 144 c-20 -9 -2 -34 26 -35 24 -2 24 -2 3 -6 -37 -7 -24 -38 17
-38 37 0 52 13 28 27 -9 5 -14 15 -10 24 9 25 -29 42 -64 28z"/>
<path d="M657 143 c-18 -17 -5 -33 26 -33 40 0 51 8 36 27 -12 14 -51 18 -62
6z"/>
<path d="M638 82 c-5 -16 0 -18 31 -17 25 0 37 6 39 18 5 25 -64 24 -70 -1z"/>
</g>
</svg>
